<?xml version="1.0" encoding="UTF-8" standalone="no"?>
<svg
   width="57"
   height="48"
   viewBox="0 0 57 48"
   fill="none"
   version="1.1"
   id="svg26"
   sodipodi:docname="Group 9.svg"
   inkscape:version="1.2.2 (732a01da63, 2022-12-09, custom)"
   xmlns:inkscape="http://www.inkscape.org/namespaces/inkscape"
   xmlns:sodipodi="http://sodipodi.sourceforge.net/DTD/sodipodi-0.dtd"
   xmlns="http://www.w3.org/2000/svg"
   xmlns:svg="http://www.w3.org/2000/svg">
  <defs
     id="defs30" />
  <sodipodi:namedview
     id="namedview28"
     pagecolor="#ffffff"
     bordercolor="#000000"
     borderopacity="0.25"
     inkscape:showpageshadow="2"
     inkscape:pageopacity="0.0"
     inkscape:pagecheckerboard="0"
     inkscape:deskcolor="#d1d1d1"
     showgrid="false"
     showguides="true"
     inkscape:zoom="16.416667"
     inkscape:cx="28.507614"
     inkscape:cy="24.09137"
     inkscape:window-width="1850"
     inkscape:window-height="1016"
     inkscape:window-x="0"
     inkscape:window-y="0"
     inkscape:window-maximized="1"
     inkscape:current-layer="svg26">
    <sodipodi:guide
       position="19.614213,41.664975"
       orientation="0,-1"
       id="guide136"
       inkscape:locked="false" />
    <sodipodi:guide
       position="19.187817,4.751269"
       orientation="0,-1"
       id="guide138"
       inkscape:locked="false" />
    <sodipodi:guide
       position="40.385787,40.873096"
       orientation="0,-1"
       id="guide140"
       inkscape:locked="false" />
    <sodipodi:guide
       position="38.071066,8.893401"
       orientation="0,-1"
       id="guide142"
       inkscape:locked="false" />
    <sodipodi:guide
       position="53.774666,23.970971"
       orientation="0,-1"
       id="guide198"
       inkscape:locked="false" />
  </sodipodi:namedview>
  <path
     d="m 30.695805,7.2784999 c -8.7793,0 -15.8963,7.1169901 -15.8963,15.8962901 0,8.7794 7.117,15.8964 15.8963,15.8964 8.7793,0 15.8963,-7.117 15.8963,-15.8964 0,-8.7793 -7.117,-15.8962901 -15.8963,-15.8962901 z m -10e-5,27.9580901 c -6.6508,0 -12.0617,-5.4108 -12.0617,-12.0617 0,-6.6508 5.4109,-12.0616 12.0617,-12.0616 6.6508,0 12.0617,5.4108 12.0617,12.0616 0,6.6509 -5.4108,12.0617 -12.0617,12.0617 z"
     fill="#9b9b9b"
     id="path18" />
  <path
     d="m 30.695905,14.34639 c -4.8681,0 -8.8286,3.9604 -8.8286,8.8285 0,4.8681 3.9605,8.8286 8.8286,8.8286 4.868,0 8.8285,-3.9605 8.8285,-8.8286 0,-4.8681 -3.9604,-8.8285 -8.8285,-8.8285 z"
     fill="#9b9b9b"
     id="path20" />
  <path
     d="m 9.8249799,20.511553 c 1.2227001,-0.7406 2.0400001,-2.0835 2.0400001,-3.6174 l -0.6057,-9.9019898 c -0.0231,-0.37744 -0.336,-0.67172 -0.7142,-0.67172 -0.409,0 -0.7349001,0.34266 -0.7145001,0.75094 L 10.22438,15.012853 c 0,0.4464 -0.3620001,0.8082 -0.8082001,0.8082 -0.4463,0 -0.8082,-0.362 -0.8082,-0.8082 l -0.1968,-7.9381898 c -0.0104,-0.41953 -0.3534,-0.75413 -0.7732,-0.75413 -0.4197,0 -0.7626003,0.33469 -0.7731003,0.75413 l -0.1968,7.9381898 c 0,0.4464 -0.362,0.8082 -0.8082,0.8082 -0.4464,0 -0.8082,-0.362 -0.8082,-0.8082 l 0.3938,-7.9414698 c 0.0203,-0.40847 -0.3058,-0.75094 -0.7146,-0.75094 -0.3781,0 -0.691,0.29428 -0.714,0.67172 l -0.6059,9.9020898 c 0,1.5339 0.8171,2.8767 2.0399,3.6174 0.7957,0.482 1.2393,1.3831 1.1368,2.3079 -0.6903,6.221 -1.1591,16.3774 -1.1591,17.4838 0,1.607 0.9892,2.9098 2.2094003,2.9098 1.2201,0 2.2093,-1.3029 2.2093,-2.9098 0,-1.1064 -0.4689,-11.2628 -1.1591,-17.4838 -0.1026,-0.9243 0.3415,-1.8262 1.1368,-2.308 z"
     fill="#9b9b9b"
     id="path22" />
  <circle
     cx="52.845814"
     cy="24.004759"
     r="2"
     fill="#9b9b9b"
     id="circle24" />
</svg>
