<?xml version="1.0" encoding="UTF-8" standalone="no"?>
<svg
   width="57"
   height="48"
   viewBox="0 0 57 48"
   fill="none"
   version="1.1"
   id="svg26"
   sodipodi:docname="Group 9.svg"
   inkscape:export-filename="../6dfa00be/group 10.svg"
   inkscape:export-xdpi="96"
   inkscape:export-ydpi="96"
   inkscape:version="1.2.2 (732a01da63, 2022-12-09, custom)"
   xmlns:inkscape="http://www.inkscape.org/namespaces/inkscape"
   xmlns:sodipodi="http://sodipodi.sourceforge.net/DTD/sodipodi-0.dtd"
   xmlns="http://www.w3.org/2000/svg"
   xmlns:svg="http://www.w3.org/2000/svg">
  <defs
     id="defs30" />
  <sodipodi:namedview
     id="namedview28"
     pagecolor="#ffffff"
     bordercolor="#000000"
     borderopacity="0.25"
     inkscape:showpageshadow="2"
     inkscape:pageopacity="0.0"
     inkscape:pagecheckerboard="0"
     inkscape:deskcolor="#d1d1d1"
     showgrid="false"
     showguides="true"
     inkscape:zoom="16.416667"
     inkscape:cx="13.827411"
     inkscape:cy="24.030457"
     inkscape:window-width="1850"
     inkscape:window-height="1016"
     inkscape:window-x="0"
     inkscape:window-y="0"
     inkscape:window-maximized="1"
     inkscape:current-layer="svg26">
    <sodipodi:guide
       position="26.80203,24.060914"
       orientation="0,-1"
       id="guide136"
       inkscape:locked="false" />
    <sodipodi:guide
       position="15.179886,47.791561"
       orientation="1,0"
       id="guide138"
       inkscape:locked="false" />
    <sodipodi:guide
       position="20.893401,41.604061"
       orientation="0,-1"
       id="guide140"
       inkscape:locked="false" />
    <sodipodi:guide
       position="20.588832,4.6903553"
       orientation="0,-1"
       id="guide142"
       inkscape:locked="false" />
  </sodipodi:namedview>
  <path
     d="M39.1107 7.21021C30.3314 7.21021 23.2144 14.3272 23.2144 23.1065C23.2144 31.8859 30.3314 39.0029 39.1107 39.0029C47.89 39.0029 55.007 31.8859 55.007 23.1065C55.007 14.3272 47.89 7.21021 39.1107 7.21021ZM39.1106 35.1683C32.4598 35.1683 27.0489 29.7575 27.0489 23.1066C27.0489 16.4558 32.4598 11.045 39.1106 11.045C45.7614 11.045 51.1723 16.4558 51.1723 23.1066C51.1723 29.7575 45.7615 35.1683 39.1106 35.1683Z"
     fill="#9B9B9B"
     id="path18" />
  <path
     d="M39.1108 14.2781C34.2427 14.2781 30.2822 18.2385 30.2822 23.1066C30.2822 27.9747 34.2427 31.9352 39.1108 31.9352C43.9788 31.9352 47.9393 27.9747 47.9393 23.1066C47.9393 18.2385 43.9789 14.2781 39.1108 14.2781Z"
     fill="#9B9B9B"
     id="path20" />
  <path
     d="m 8.8605919,20.586981 c 1.2227001,-0.7406 2.0400001,-2.0835 2.0400001,-3.6174 l -0.6057,-9.9019895 c -0.0231,-0.37744 -0.3360001,-0.67172 -0.7142001,-0.67172 -0.409,0 -0.7349,0.34266 -0.7145,0.75094 l 0.3938,7.9414695 c 0,0.4464 -0.362,0.8082 -0.8082,0.8082 -0.4463,0 -0.8082,-0.362 -0.8082,-0.8082 l -0.1968,-7.9381895 c -0.0104,-0.41953 -0.3534,-0.75413 -0.7732,-0.75413 -0.4197,0 -0.7626,0.33469 -0.7731,0.75413 l -0.1968,7.9381895 c 0,0.4464 -0.362,0.8082 -0.8082,0.8082 -0.4464,0 -0.8082,-0.362 -0.8082,-0.8082 l 0.3938,-7.9414695 c 0.0203,-0.40847 -0.3058,-0.75094 -0.7146,-0.75094 -0.3781,0 -0.691,0.29428 -0.714,0.67172 l -0.6059,9.9020895 c 0,1.5339 0.8171,2.8767 2.0399,3.6174 0.7957,0.482 1.2393,1.3831 1.1368,2.3079 -0.6903,6.221 -1.1591,16.3774 -1.1591,17.4838 0,1.607 0.9892,2.9098 2.2094,2.9098 1.2201,0 2.2093,-1.3029 2.2093,-2.9098 0,-1.1064 -0.4689,-11.2628 -1.1591,-17.4838 -0.1026,-0.9243 0.3415,-1.8262 1.1368,-2.308 z"
     fill="#9b9b9b"
     id="path22" />
  <circle
     cx="16.437023"
     cy="23.944082"
     r="2"
     fill="#9b9b9b"
     id="circle24" />
</svg>
