<svg width="20" height="20" viewBox="0 0 20 20" fill="none" xmlns="http://www.w3.org/2000/svg">
<g clip-path="url(#clip0_10_382)">
<g clip-path="url(#clip1_10_382)">
<path d="M11.3059 2.10974C10.5903 1.3941 9.63881 1 8.6268 1C7.6148 1 6.66332 1.3941 5.94775 2.10974L4.40137 3.65613L9.75951 9.01427L11.3059 7.46788C12.7831 5.99065 12.7831 3.58698 11.3059 2.10974Z" fill="#9B9B9B"/>
<path d="M3.65531 4.40234L2.10893 5.9487C0.63166 7.42593 0.63166 9.82961 2.10893 11.3068C2.82453 12.0225 3.77597 12.4166 4.78798 12.4166C5.79998 12.4166 6.75145 12.0225 7.46706 11.3068L9.01341 9.76049L3.65531 4.40234Z" fill="#9B9B9B"/>
<path d="M17.8913 8.69495C17.1757 7.97931 16.2243 7.58521 15.2123 7.58521C14.2003 7.58521 13.2488 7.97931 12.5332 8.69495L10.9868 10.2413L16.345 15.5995L17.8913 14.0531C19.3686 12.5759 19.3686 10.1722 17.8913 8.69495Z" fill="#9B9B9B"/>
<path d="M10.2402 10.9875L8.69386 12.5339C7.21663 14.0111 7.21663 16.4148 8.69386 17.892C9.4325 18.6306 10.4027 18.9999 11.373 18.9999C12.3432 18.9999 13.3134 18.6306 14.052 17.892L15.5984 16.3457L10.2402 10.9875Z" fill="#9B9B9B"/>
</g>
</g>
<defs>
<clipPath id="clip0_10_382">
<rect width="20" height="20" fill="white"/>
</clipPath>
<clipPath id="clip1_10_382">
<rect width="18" height="18" fill="white" transform="translate(1 1)"/>
</clipPath>
</defs>
</svg>
